. 
  
http://www.torrentday.com/        :     The Hottest Private Tracker On The Net!!!


               www . TorrentDay . Com 
(((((((((((((= Enjoy No RAR releases =))))))))))))))))))))


...................................NFO:....................................


[b]Percy Jackson & the Olympains: The Lightning Thief 2010 DVDRip AC3-LEGi0N  

[img]http://leetleech.org/images/48874973695367351744.png[/img][b]
[color=red]General[/color]
Format:AVI 
File Size: 1.37 GiB
Duration: 1h 22mn
Overall bit rate: 1 750 Kbps
IMDB Rating: 5.8/10   18 324 votes
Genre: Adventure : Fantasy      
IMDb Link: http://www.imdb.com/title/tt0814255/
Source: PAL DVDR-DiSHON  

[color=red]Video[/color]
Format: MPEG-4 Visual
Format profile: Advanced Simple@L5
Format settings, BVOP: Yes
Format settings, QPel: No         
Format settings, GMC:  No warpoints
Format settings, Matrix: Default (H.263)
Muxing mode: Packed bitstream
Codec ID: XVID
Bit rate: 1 292Kbps
Width: 720 pixels
Height: 304 pixels
DAR: 2.35:1
Frame rate 25.000 fps
Resolution: 8 bits
Colorimetry: 4:2:0
Scan Type: Progressive
Bits/(Pixel*Frame): 0.236
Stream size: 1 03 GiB (74%)

[color=red]Audio[/color]
Format: AC-3
Bit rate mode: Constant
Bit rate: 448 Kbps
Channel(s): 6 channels
Sampling rate: 48.0 KHz
Stream size: 365 MiB (26%) 

[img]http://leetleech.org/images/89524873606771859129.png[/img]
 A teenager discovers he's the descendant of a Greek god and sets
out on an adventure to settle an on-going battle between gods.  
                                   
[color=red]Tagline:[/color]
N/A                                                        

[img]http://leetleech.org/images/84434050717770922575.png[/img]
Logan lerman   ...  Percy Jackson           
Brandon Jackson ..  Grover Underwood
Alexandra Daddario  Annabeth       
Jake Abel      ...  Luke       
Sean Bean      ...  Zeus    
Pierce Brosnan ...  Mr. Brunner/Chiron
Steve Coogan   ...  Hades       

[color=red]GREETZ[/color]
Noir | xXTHORNXx | bigimac | LUSi |

kempas | KaN1vE | mike160 | skillz |

Lungbuster | Sheikh | DiLLoN1369  |

0B5C3N3 | FLAWL3SS | AND ALL P2P![/b]
[color=red]SAMPLE INCLUDED[/color]
[img]http://leetleech.org/images/95521316153253938506.png[/img]
[img]http://i25.timypic.com/281rhgj.jpg[/img]
[center][img]http://leetleech.org/images/12755021538703799215.png[/img][/center]